<svg width="119" height="28" viewBox="0 0 119 28" fill="none" xmlns="http://www.w3.org/2000/svg">
<rect x="10.3828" y="10.8555" width="6.261" height="6.26087" fill="#0F131A"/>
<path d="M15.6055 24.9423H24.4752V3.0293H15.6055V5.89886H21.6056V22.0728H15.6055V24.9423Z" fill="#4A99BF"/>
<path d="M11.4303 3.0293V5.89886H5.43017V22.0728H11.4303V24.9423H2.56055V3.0293H11.4303Z" fill="#4A99BF"/>
<path d="M34.9199 23.0161H38.0747L37.8744 9.14514L42.5815 23.0161H45.9366L50.6438 9.14514L50.4435 23.0161H53.6233V5.48961H48.791L44.2841 19.636L39.7773 5.48961H34.9199V23.0161Z" fill="#09141B"/>
<path d="M59.6895 23.2915C61.5674 23.2915 63.1698 22.3401 63.8458 20.8879C63.8458 21.8894 63.9209 22.4653 64.0461 23.0161H67.0757C66.9005 22.0897 66.7753 20.6375 66.7753 19.2855V15.1042C66.7753 12.0996 64.597 10.0465 61.4923 10.0465C58.3875 10.0465 56.1341 11.9995 55.9839 14.7787L58.9885 14.8538C59.1136 13.3765 60.0651 12.5503 61.3921 12.5503C62.8443 12.5503 63.6956 13.5017 63.6956 15.029V15.4046L61.3671 15.655C57.6364 16.0806 55.6083 17.4076 55.6083 19.7612C55.6083 21.9395 57.3109 23.2915 59.6895 23.2915ZM58.713 19.4858C58.713 18.2589 59.7646 17.7582 61.5924 17.5328L63.7457 17.2825V17.9084C63.7457 19.8113 62.3936 21.1383 60.666 21.1383C59.5643 21.1383 58.713 20.5875 58.713 19.4858Z" fill="#09141B"/>
<path d="M76.1802 22.916L76.1551 20.312C74.8281 20.7126 73.5011 20.5624 73.5011 18.5594V13.001H76.5307V10.4221H73.5011V7.24226H70.3964V10.4221H68.1179V13.001H70.3964V18.8098C70.3964 22.916 73.426 23.6922 76.1802 22.916Z" fill="#09141B"/>
<path d="M78.3234 23.0161H81.4282V17.658C81.4282 14.2278 83.6816 13.1262 86.1103 13.4767V10.397C83.982 9.97139 81.9039 10.9479 81.353 13.8773L81.4282 10.4221H78.3234V23.0161Z" fill="#09141B"/>
<path d="M87.6335 23.0161H90.7382V10.4221H87.6335V23.0161ZM87.1828 6.61631C87.1828 7.76805 88.0591 8.64438 89.1858 8.64438C90.3376 8.64438 91.2139 7.76805 91.2139 6.61631C91.2139 5.48961 90.3376 4.61328 89.1858 4.61328C88.0591 4.61328 87.1828 5.48961 87.1828 6.61631Z" fill="#09141B"/>
<path d="M99.1656 23.3917C102.571 23.3917 105.225 21.2134 105.375 18.0086L102.295 17.7832C102.12 19.5359 100.743 20.6375 99.1656 20.6375C97.3128 20.6375 95.7104 19.1853 95.7104 16.7066C95.7104 14.4281 97.1375 12.7756 99.1656 12.7756C100.818 12.7756 102.12 13.9023 102.295 15.4797L105.35 15.2293C105.175 12.1497 102.521 10.0465 99.1656 10.0465C95.3849 10.0465 92.6057 12.8758 92.6057 16.7066C92.6057 20.5875 95.3598 23.3917 99.1656 23.3917Z" fill="#09141B"/>
<path d="M110.861 23.2915C112.739 23.2915 114.341 22.3401 115.017 20.8879C115.017 21.8894 115.092 22.4653 115.217 23.0161H118.247C118.072 22.0897 117.947 20.6375 117.947 19.2855V15.1042C117.947 12.0996 115.768 10.0465 112.664 10.0465C109.559 10.0465 107.305 11.9995 107.155 14.7787L110.16 14.8538C110.285 13.3765 111.236 12.5503 112.563 12.5503C114.016 12.5503 114.867 13.5017 114.867 15.029V15.4046L112.538 15.655C108.808 16.0806 106.78 17.4076 106.78 19.7612C106.78 21.9395 108.482 23.2915 110.861 23.2915ZM109.884 19.4858C109.884 18.2589 110.936 17.7582 112.764 17.5328L114.917 17.2825V17.9084C114.917 19.8113 113.565 21.1383 111.837 21.1383C110.736 21.1383 109.884 20.5875 109.884 19.4858Z" fill="#09141B"/>
</svg>
